# xmcd
#
# Track frame offsets: 
#        151
#        11647
#        24913
#        41872
#        56981
#        70759
#        86172
#        88893
#        101939
#        116367
#        127109
#        137109
#        153207
#
# Disc length: 2268 seconds
#
# Revision: 4
# Processed by: cddbd v1.4PL0 Copyright (c) Steve Scherf et al.
# Submitted via: ExactAudioCopy v0.90b4
#
DISCID=b608da0d
DTITLE=Corb Lund Band - Five Dollar Bill
DYEAR=2002
DGENRE=Country
TTITLE0=Five Dollar Bill
TTITLE1=Expectation and the Blues
TTITLE2=Short Native Grasses (Prairies of Alberta)
TTITLE3=No Roads Here
TTITLE4=Apocalyptic Modifed Blues
TTITLE5=Heavy and Leaving
TTITLE6=Intro - Jack of Diamonds
TTITLE7=Time to Switch to Whiskey
TTITLE8=Roughest Neck Around
TTITLE9=Daughter Don't You Marry No Guitar Picker
TTITLE10=(Gonna) Shine Up My Boots
TTITLE11=Buckin' Horse Rider
TTITLE12=She Won't Come to Me
EXTD=
EXTT0=
EXTT1=
EXTT2=
EXTT3=
EXTT4=
EXTT5=
EXTT6=
EXTT7=
EXTT8=
EXTT9=
EXTT10=
EXTT11=
EXTT12=
PLAYORDER=
